<?xml version="1.0" encoding="utf-8"?>
<!-- Generator: Adobe Illustrator 19.1.0, SVG Export Plug-In . SVG Version: 6.00 Build 0)  -->
<svg version="1.1" id="Layer_1" xmlns="http://www.w3.org/2000/svg" xmlns:xlink="http://www.w3.org/1999/xlink" x="0px" y="0px"
	 viewBox="0 0 324.5 354.1" style="enable-background:new 0 0 324.5 354.1;" xml:space="preserve">
<style type="text/css">
	.st0{fill:#2E3192;}
	.st1{fill:#F1F2F2;stroke:#F1F2F2;stroke-miterlimit:10;}
	.st2{fill:#FFFFFF;stroke:#F1F2F2;stroke-miterlimit:10;}
	.st3{fill:#F1F2F2;stroke:#2E3192;stroke-miterlimit:10;}
	.st4{fill:none;stroke:#2E3192;stroke-miterlimit:10;}
</style>
<g>
	<g>
		<path class="st0" d="M188.3,313.1c4.1,0,8.1,0.2,12.1,0c16.7-0.8,33,2.2,49.3,4.8c8,1.3,16.2,0.6,24.3,1.4
			c2.9,0.3,6.1-1.6,9.1-2.7c1.9-0.7,3.9-2,5.7-1c1.6,0.9,0.3,2.9,0.1,4.3c-0.3,2.3-2.2,3.4-4.7,3.4c-4.5,0-9.1,0-13.6,0.3
			c12,0.7,24,0.9,35.5-3.5c1.2-0.5,2.9-1.9,3.8,0.1c0.7,1.6-1.1,2.4-2.4,3.1c-1.6,0.8-3.4,1.3-5,2c0.5,1.3,1.7,1.1,2.5,1.4
			c1.1,0.4,2.4,0.6,2.3,2c-0.1,1.2-1.1,1.9-2.2,2.3c-1.1,0.4-2.3,0.6-3.4,0.9c-1,0.3-2,0.8-1.9,1.9c0,0.9,1,1.1,1.8,1.3
			c5,1.2,2.2,3.3,0.4,4.6c-2.6,1.9-5.6,3.4-9.3,5.5c3.6,0.8,6.2,1.5,8.8,2.1c0,0.2,0,0.5,0,0.7c-2.6,0.1-5.2,0.4-7.8,0.4
			c-85.1,0-170.3,0-255.4,0.1c-3.9,0-6.2-0.9-5.9-4.9c0.2-2.2-1.3-3.6-3.3-4.8c-2.4-1.6-7.2-1.9-4.7-6.8c0.6-1.2-1.8-1.9-3.3-2.2
			c-2.3-0.3-4.7-0.9-7-0.9c-4.1,0-4.7-2.9-4.6-5.3c0-2.4,2.2-4,5.1-4.2c2.8-0.2,5.5,0.1,4.7-3.9c-0.5-2.3,2.2-1.6,3.8-1.7
			c2.7-0.1,6.6,1.4,7.6-0.5c1.4-2.5-2.7-4.1-4.2-6.2c-2.4-3.5-6.2-4.6-10.4-4.9c-1.1-0.1-2.8-0.1-2.7-1.5c0.1-1.3,1.7-1.3,2.8-1.4
			c3.9-0.4,7.8-1.1,11.6-0.9c4,0.2,4.9-1.6,3.7-4.2c-2.9-5.7,0.2-7.5,5.7-8.3c0.5-0.1,0.9-0.8,1.7-1.5c-4-1.4-7.7-0.6-11.3-0.8
			c-3.5-0.1-7.1,0.1-10.5-1.3c-7.6-3.1-8.8-6-5.2-12.8c0.2-0.4,0.9-0.8,0.8-1.1c-2.7-7,2.9-5.2,6.9-5.7c5.4-0.7,10.7-1.8,16.1-1.7
			c4.7,0.1,6.3-4.2,10.1-5.4c0.8-0.3,0.5-2-0.3-2.9c-1.2-1.4-2.9-1.4-4.6-1c-5.9,1.3-12,2-18,2.8c-3,0.4-4.6,0.1-3-2.9
			c1.3-2.5-0.7-3.4-2.3-4.4c-2.8-1.7-5.9-3-8.8-4.6c-0.9-0.5-1.7-1.1-1.7-2.2c0-0.9,1-1.2,1.8-1.2c4.9-0.3,8.5-3.5,13.5-4.5
			c-3.4-2.5-6.5-1.7-10-0.1c0.3-3.5,2.6-4.8,5.2-5.5c2.6-0.8,5.2-1.3,7.9-1.8c1.9-0.4,3.6-0.8,4.1-2.9c0.5-2.3,2.1-2.9,4.5-2.6
			c2.5,0.4,3.2-1,3.4-3c1.1-8.5-2.1-12.5-12-11.8c-4.8,0.3-9.5,1.2-15.7,0.4c6.5-2,11.9-1.5,17.2-2.5c1.6-0.3,5.1-5.1,4.4-6.4
			c-0.7-1.2-2.1-0.8-3.2-0.8c-3.9,0.2-7.8,0.5-11.6,0.7c-1.4,0.1-3.3,0.3-3.6-1.6c-0.3-1.7,1.2-2.4,2.6-3c3.5-1.7,7.1-2.9,11.1-2.7
			c2.3,0.1,4.6,0,7.2,0c-1.6-2.8-6.1-0.5-6.3-3.4c-0.2-3,2.6-5.2,4.5-7.5c1.1-1.4,2.6-2.4,4.4-3.1c1.1-0.4,2.5-0.9,2.3-2.2
			c-0.2-1.7-2-1.2-3.3-1.4c-4.5-0.8-9-1.2-13.5-2.2c-5.2-1.2-9.1-4-13-6.9c-3-2.2-1.9-4,1.2-5c3.6-1.2,7.3-2.2,11.6-3.5
			c-4.7-3.4-10.4-4.5-13.8-8.7c2.7-0.5,5.6-0.1,8.1-1.8c-1.1-2.3-3.7-1.7-5.5-2.4c-2.1-0.8-6.7-1.4-1.4-4.4c2.2-1.2,0.6-1.9-0.5-2.6
			c-1.7-1-4.2-1.4-4.4-4.2c6,0.7,11.4,2.9,17.4,3.1c4.6,0.2,6.4-0.7,4.4-4.9c-1.2-2.5-0.6-3.7,2.4-2.7c14.1,4.7,28.3,2.5,42.4,0.4
			c13.5-2.1,26.9-4.5,40.6-5.6c6.4-0.5,12.8,0.5,19.8,1.2c-3.6-5.7-9.1-4.2-13.8-4.5c-19.8-1.2-38.8,4-58.2,6.4
			c-8.9,1.1-17.9-0.1-26.9,0.9c-2.9,0.3-6.2-1.7-9.3-2.8c-0.5-0.2-1-1-1-1.4c0-0.9,0.9-1.2,1.8-1.2c2,0.2,4,0.4,6,0.7
			c2.4,0.3,4-0.7,4.8-2.6c0.8-1.8-0.5-2.9-1.9-3.9c-1.7-1.3-3.3-2.6-5.1-3.8c-2.7-1.7-4-3.4-0.1-5.8c-7.7,2.7-13.6-1.7-20.2-2.3
			c0-0.5,0.1-1.1,0.1-1.6c5.1,0,10.3,0,15.4,0c4.7,0,9.5,0.1,14.2,0c3.8-0.1,8.4,1.3,9.8-4.1c0.1-0.5,1.7-0.7,2.9-1.1
			c-0.9-2.2-3.5-3.1-4.6-4.9c-1-1.7-4.6-2.6-1.7-5.6c1-1.1-2.1-1.7-2.1-3.3c0.5-1.4,2.8,0.1,3.2-1.7c-0.3-0.3-0.6-0.8-0.9-0.9
			c-2.4-0.2-5.3-2-7,0.9c-0.5,0.9-0.5,1.4-1.4,0.6c-3.4-3-8-4-11.9-6c-4-2-8.8-1.8-13.1-3.3c3.3-5.2,8.6-5.9,14.2-5.9
			c2.9,0,5.8,0,8.6,0c2.8,0,5.8,0.6,6.5-3.3c0.2-1,2.5-1.8,4.3-3c-3.2-1.1-5.1-2.5-3.4-5.8c1.5-2.8-0.8-3.5-3.3-3.5
			c-8.4,0-16.3-2.8-24.7-2.7c-1.4,0-3.1,0.3-4.3-1.4c4.4-1.6,9.9-0.6,13.5-4.6c-1.2-0.4-2.2-0.7-3.5-1.1c0.6-0.5,0.9-0.9,1.3-1
			c0.4-0.2,1-0.3,1.5-0.2c3.2,0.2,6.9-0.1,7.1-3.4c0.2-3.9-3.9-3.8-7.2-4c-0.3,0-0.6-0.2-1.4-0.6c3.7-1.9,7.4-2.2,11.2-2
			c1.5,0.1,3,0.4,4.5,0.5c7.8,0.4,10.2-2.2,9.2-9.4c-0.3-2-1.2-3-3.4-3.4c-3.7-0.6-7.4-0.9-11.1-0.9c-2.6,0-5.1-0.1-7.3-1.4
			c-1.5-0.8-4.3-1-3.2-3.3c0.9-2,2.2-4.5,5.4-4c9.7,1.3,19.6,0.6,29.2,2.5c2,0.4,4,0.5,6,0.5c30.2-1.1,60.4-1,90.5,2.6
			c10,1.2,20.3,0.7,30.4,1.1c26,1,51.9,2.8,77.8,5.3c6.2,0.6,12.5,0.5,18.7,0.7c1.3,0.1,3,0,3.7,1.1c0.9,1.5-0.8,1.9-1.7,2.8
			c-2.7,2.8-1.4,6.1-1.1,9.3c0.2,2.4,2.6,1.8,4.4,1.7c0.9,0,1.9,0.2,2.1,1c1,4.7,5.5,3.8,8.8,4.7c3.2,0.9,6.6,1.2,8.5,5.3
			c-3.4-0.9-6.1-1.9-9.2-0.1c3.7,2,7.2,3.7,11.3,4.3c0.8,0.1,2-0.1,2,1c0,0.7-0.5,1.6-1.1,1.9c-2.3,1.3-4.7,2.4-7.2,3.5
			c-2.3,1-4.2,2.4-3.4,4.9c1,3.2-0.8,3.4-3.5,3c-5.5-0.8-11-1.6-16.6-2.3c-1.8-0.2-3.8-1-4.8,1.2c-1,2.2,1.4,2.5,2.4,3.8
			c2.5,3.2,5.9,3.2,9.4,3.2c6.1,0,12,1.9,18.1,1.3c1.7-0.1,2.9,0.7,2.4,2.1c-0.6,1.9,0.7,3.7,0.5,5.3c-0.3,2.5,2.7,5.2,0.5,6.9
			c-3.3,2.5-7.4,4.4-11.9,4.7c-3.7,0.2-7.4,0.1-11.2,0.1c-1.1,0-2.7-0.1-2.8,1.3c-0.1,1.2,1.4,1.2,2.3,1.3c3.9,0.5,6.4,1.2,4,5.8
			c-1.3,2.6-0.3,5.5,4.7,5.1c4.1-0.4,8.3-0.3,12.3,0.9c0.1,1.9-1.4,2-2.4,2c-6.8-0.1-10,4.5-13.7,8.4c-1.8,1.9-0.8,2.7,1.5,2.7
			c1.9-0.1,3.7-0.3,5.5-0.5c1.9-0.2,3.6,0,3.4,2.3c-0.2,2.9,1.9,2.8,4,2.8c2.6,0.1,4.6,0.9,5,3.6c0.3,2.8-1,4.2-4.2,4.4
			c-2.2,0.2-4.3,0.8-6.4,1.4c-2,0.6-5.8,0.2-2.7,4c1,1.2-1.4,1.7-2.3,2.5c-1.8,1.5-4.7,2-5.6,4.5c-0.5,1.5-0.7,3.1,0.3,4.5
			c1,1.4,2.8,0.5,4.2,0.7c1.7,0.3,6.2-4.3,4.8,2.1c-0.2,0.8,1.9,0.9,3.1,0.9c3.2,0,6.5,0.3,9.6-0.2c4-0.7,6.2,1.6,8.8,3.3
			c0.8,0.5,1,1.3,0.6,2c-0.7,1.6-2.2,2.4-4,2.4c-4.1,0.1-8.1,0.1-12.2,0.1c-6.2,0-6.3,0.2-5.8,5.7c0.6,6.5,1.7,12.8,5.2,18.6
			c1.6,2.7,3.2,4.5,7.1,3.6c2.1-0.4,4.2,0.2,6.8,1.5c-4.5,2.3-8.9,1-12.8,2c-1.6,0.4-4.1-0.4-2.4,2.7c0.9,1.6-1.3,2.1-2.6,2.7
			c-5.3,2.3-11.1,2.7-16.8,2.7c-6.8,0.1-5.1,4.7-5.4,7.9c-0.3,3.3,1.1,6.1,5.7,6c3.9-0.1,7.8-0.1,11.7-0.1c2,0,4,0,5.8,1.8
			c-2.3,2-7.8,0.1-7.5,4.1c0.4,4.4,5.1,4.5,8.9,4.6c-0.4,1.9-2.1,1.2-3,2.2c2.8,4.1,8.4,2.6,13.6,5.3c-9.6,1.3-17.8,2.6-26,3.5
			c-6.4,0.7-6.5,0.5-5.1,6.2c0.7,2.6-1.4,3.1-2.9,3.8c0.2,1.8,2.2,1.6,2.5,2.5c1.3,5.8,5.9,4.4,10.1,4.1c1.8-0.1,3.7-0.1,5.6-0.1
			c5.6-0.1,10.6,0.9,13.9,6.2c-6.5,1.7-13.7,1.9-18.6,6.6c-6.7,6.4-14.1,12.3-20.2,19.1c1,1.7,3.5,0,3.6,1.5
			c0.5,5.3,4.6,3.5,7.8,3.5c9.5,0,19.1,0,29.6,0c-3.7,3.6-8.2,3-11.7,4.4c-3,1.3-5.6,2.4-7.5,4.9c-1.4,1.9-3.2,3.5-4.9,5.3
			c-1.4,1.4-2.9,2.8-1.3,4.8c1.4,1.9,3.4,1.7,5.5,1.3c0.8-0.1,1.7-0.3,2.5-0.4c1.2-0.1,2.6-0.3,3.1,1c0.6,1.7-1.1,2.1-2.4,2.4
			c-7.4,1.8-14.8,2.8-22.5,2.7c-20.5-0.3-40.4-5.8-60.9-6c-4.9,0-9.8,0.5-14.6,1C190.2,309.9,188.6,310.9,188.3,313.1z"/>
		<g>
			<path class="st0" d="M188.3,315.6c9.8,0,19.6-0.4,29.4,0.4c10.9,0.9,21.6,3,32.4,4.5c4.6,0.6,9.1,0.8,13.7,0.9
				c4.2,0.1,9,1.1,13.2,0.3c2-0.4,3.8-1.3,5.7-2.1c1.4-0.6,3.8-2.3,4.1-0.9c0.6,3-14.1,2.4-16,2.5c-3.2,0.2-3.2,4.8,0,5
				c7.9,0.4,15.8,0.7,23.6-0.4c3.7-0.5,7.3-1.3,10.8-2.5c-0.3,0.1,3.1-0.9,3.1-1.2c0.5-2.6-5.6,0.7-6.4,1c-1.3,0.5-2.6,2.3-1.5,3.7
				c0.7,1,1.3,1.4,2.2,2c0.2,0.1,1.9,0.5,1.9,0.6c0-0.3-3.1,0.4-3.3,0.4c-2,0.7-4,2.2-3.7,4.6c0.1,0.9,0.6,1.8,1.2,2.3
				c0.3,0.3,2.9,1.1,2.6,0.8c0-0.1-2.4,1.6-3.4,2.2c-2.1,1.2-4.2,2.4-6.3,3.6c-1.8,1-1.5,4.1,0.6,4.6c2.9,0.7,5.9,1.4,8.8,2.1
				c-0.6-0.8-1.2-1.6-1.8-2.4c0,0.2,0,0.5,0,0.7c0.8-0.8,1.7-1.7,2.5-2.5c-16.5,0.9-33.2,0.4-49.7,0.4c-16.6,0-33.3,0-49.9,0
				c-32.6,0-65.2,0-97.8,0c-16.6,0-33.3,0-49.9,0c-4,0-8,0-12,0c-1.4,0-3.9,0.5-5.2,0c-2.2-0.8-1.6-1.4-2.3-3.6
				c-0.6-1.9-1.2-3.2-2.8-4.6c-1-0.8-5-2.1-5.5-3.1c-0.6-1.4,0.9-3,0.1-4.6c-0.7-1.4-2.4-2-3.8-2.4c-2.5-0.7-6.4-0.1-8.7-1.2
				c-2.4-1.1-2.5-3.2-0.2-4.4c1.1-0.6,3-0.1,4.3-0.4c1.4-0.4,2.6-1.2,3.2-2.5c0.3-0.6,0.5-1.5,0.5-2.2c-0.2-2.4-1.2-0.5,0.3-0.6
				c3.5-0.1,9.2,2,10.9-2.4c1.6-4-4-8.3-6.6-10.6c-1.9-1.7-4.4-2.7-7-3.2c-0.2,0-3.2-0.6-3.4-0.5c-3,2.9,5.6,1.5,6,1.4
				c3.8-0.4,11.6,1.2,12.4-4.4c0.4-2.5-2.8-5.5-0.6-7.4c1-0.9,2.8-0.5,3.9-1c1.2-0.5,1.9-1.3,2.8-2.2c1.3-1.4,0.8-3.7-1.1-4.2
				c-7.8-2.2-16.4,0.9-23.7-3c-3.3-1.7-4-3.7-2.4-7c0.4-0.8,1.6-2,1.7-2.9c0.2-1-0.6-1.8-0.5-2.7c-0.6-0.8-0.5-1.1,0.5-1
				c0.6,0,1.2,0,1.8,0c0.9,0,1.8,0,2.7-0.1c4.2-0.4,8.3-1.3,12.5-1.6c3-0.2,5.7,0.1,8.4-1.3c1.2-0.6,2.2-1.6,3.2-2.5
				c1.1-0.8,2.6-1.4,3.6-2.3c3.3-3,0.2-7.9-3.6-8.5c-3.1-0.5-6.7,0.9-9.8,1.4c-1.4,0.2-12.1,1.9-12.1,2c0.3,0.5,0.9-3.5,0.2-4.8
				c-1.3-2.3-4.6-3.5-6.9-4.6c-1.3-0.6-4.4-1.5-5.2-2.6c1,1.4,0.9,1.2,3,0.5c3.4-1.1,6.5-3,10.1-3.8c2.1-0.5,2.4-3.5,0.6-4.6
				c-4.3-2.6-8-2-12.5-0.1c1.2,0.9,2.4,1.9,3.7,2.8c0.9-4.7,7.5-4.7,11.3-5.6c2.7-0.7,3.7-1.5,5.4-3.5c0.9-1,0.9-1.4,2.5-1.8
				c0.6-0.1,1.3,0.1,2-0.1c1.1-0.3,1.9-0.8,2.6-1.6c1.6-1.9,1.6-5.4,1.5-7.8c-1-15.2-20.7-8.8-30.4-9.9c0.2,1.6,0.4,3.3,0.7,4.9
				c4-1.2,8-1.5,12.2-1.9c2-0.2,4.4-0.1,6.2-1.1c2.5-1.4,6-5.9,5-9c-1.8-5-11.7-2.2-15.3-2c-1.1,0.1-2.4-0.2-2.8,0.6
				c0.5-0.9,4.1-1.8,5-2.1c4.2-1.3,8.7-0.8,13.1-0.8c2.3,0,3.1-2.7,1.8-4.3c-1.6-2-3.2-1.1-5-2.3c-1.2,0.1-1.4-0.2-0.4-0.8
				c0.7-0.7,1.3-1.5,1.9-2.2c0.8-1,1.7-2.1,2.7-2.9c2.1-1.8,10.2-4.7,5.1-8.9c-1.8-1.5-5.5-1.3-7.5-1.6c-4.2-0.6-8.6-1-12.6-2.6
				c-0.7-0.3-10-4.9-9.6-5.9c0.5-1.4,11-3.4,12.4-3.8c2.1-0.6,2.4-3.4,0.6-4.6c-4.4-2.9-9.7-4.4-13.3-8.4c-0.6,1.4-1.2,2.8-1.8,4.3
				c3.4-0.4,6.2-0.5,9.3-2.1c1.1-0.6,1.7-2.4,0.9-3.4c-1.4-1.9-2.7-2.6-5-3.1c-1-0.2-2.1-0.6-3.1-0.8c-2.6-0.5-0.2,0.5,0.8,0.2
				c1.7-0.6,2.1-3.1,1.4-4.5c-1.2-2.2-5.1-2.1-5.6-4.7c-1,1-2.1,2.1-3.1,3.1c5.2,0.7,22.1,7.6,25.4,0.4c0.6-1.3,0.3-2.7,0-4.1
				c-0.1-0.2-0.2-0.4-0.3-0.6c-0.5-2-0.8-2.3-0.8-0.9c-0.4,1.1,0.2,1.5,1.8,1.3c0.6,0.2,1.2,0.3,1.8,0.5c6.2,1.6,12.7,2,19.1,1.7
				c12.8-0.5,25.6-3.2,38.3-5.2c7.5-1.1,15-2.3,22.6-2.8c6.6-0.4,13.2,0.5,19.8,1.2c1.8,0.2,3.2-2.3,2.2-3.8
				c-2.9-3.9-6.3-5.5-11.1-5.7c-6-0.2-12.2-0.4-18.2,0c-14.6,0.9-28.9,4.3-43.3,6.1c-7.5,0.9-15.1,0.5-22.6,0.7
				c-1.9,0.1-3.9,0.4-5.8,0.4c-1.5,0-5.6-2.1-6.4-1.9c-1.1,0.3-0.8,1,0.3,1.7c0.9,0.5,3.3,0.5,4.4,0.5c3.4,0,7.1-2.5,6.9-6.3
				c-0.1-2-1.4-3.2-2.8-4.4c-0.8-0.7-7-4.7-5.8-5.6c2.2-1.6,1-5.4-1.9-4.6c-6.8,2-12.9-1.5-19.6-2.4c0.8,0.8,1.7,1.7,2.5,2.5
				c0-0.5,0.1-1.1,0.1-1.6c-0.8,0.8-1.7,1.7-2.5,2.5c10,0,20.1-0.1,30.1,0c2.5,0,5.3,0.4,7.6-0.7c2.4-1.1,2.8-3.8,5.2-4.5
				c1.6-0.4,2.3-2.3,1.5-3.7c-1.4-2.4-6.5-5.4-6.6-7.6c0-1,1.2-1.6,0.7-3c-0.4-1.1-1.9-1.5-2.2-2.5c-0.2,0.8-0.4,1.6-0.6,2.4
				c0.2-0.2,1.6-0.2,2-0.4c0.8-0.4,1.2-1,1.7-1.7c0.6-1,0.3-2.2-0.4-3c-1.5-1.8-4.3-2.2-6.5-2.3c-3-0.1-3.5,1.6-5.3,3
				c0.8,0,1.7,0,2.5,0c-3.9-2.4-7.7-4.2-11.9-6.1c-4.7-2-9.5-2.4-14.4-3.9c0.5,1.2,1,2.4,1.5,3.7c4.7-6.6,14.7-4.5,21.8-4.6
				c2,0,3.9,0,5.6-1.3c0.8-0.6,1.1-1.2,1.6-2c1.2-1.8,1.9-2.2,3.8-3.3c2-1.2,1.3-3.8-0.6-4.6c-2.8-1.1-0.2-5.9-2.4-8
				c-1.8-1.6-4.5-1.3-6.7-1.5c-4.5-0.2-8.9-1.1-13.4-1.8c-2-0.3-4-0.6-5.9-0.7c-1.7-0.1-4.7,0.5-6.1-0.8C10,46.7,9.6,48,9.3,49.4
				c5.3-1.6,10.4-1.2,14.6-5.2c1.4-1.3,0.6-3.6-1.1-4.2c-1.2-0.4-2.4-0.8-3.5-1.1c0.4,1.4,0.7,2.8,1.1,4.2c1.7-1.5,5.7-0.3,7.8-1.7
				c1.9-1.2,2.8-3.1,2.7-5.3c-0.4-6.2-5.8-4.4-9.8-6.2c0,1.4,0,2.9,0,4.3c6.2-2.7,12-0.5,18.3-1.3c3.2-0.4,6.1-1.7,7.4-4.9
				C48,25.2,48,20.6,46.2,18c-2.4-3.6-8.5-3.3-12.3-3.5c-3-0.2-8.3,0.8-10.6-1.5c0,0-1.1-0.3-1.1-0.4c-1-1.8,4.1-1.7,4.7-1.7
				c7.1-0.2,15,0.7,22,1.5c6.7,0.8,12.6,1.2,19.4,1c7.2-0.2,14.4-0.3,21.7-0.4c29.3-0.1,58.3,3.6,87.5,4.3
				c14.9,0.3,29.8,1.3,44.7,2.3c14.2,1,28.3,2.8,42.5,3.4c3.6,0.2,8.7,1.1,12.2,0.3c0.9-0.2,2.9-2.2,1.9-0.9c-0.8,1-1.7,1.6-2.3,2.9
				c-1.4,3-1.5,9.7,1.3,12c1.7,1.4,3.8,0.3,5.4,1.4c1.2,0.8,1.7,2.8,3.3,3.7c4.6,2.4,10.9,0.4,13.9,5.7c0.9-1.2,1.9-2.4,2.8-3.7
				c-4.1-1.1-7.2-1.6-11.1,0.2c-1.7,0.8-1.6,3.5,0,4.3c3.2,1.7,6.6,3.4,10.2,4.2c0.4,0.1,1.6,0.5,2,0.4c0.7-0.3-1.1-1-1.5-1
				c-1.3-0.1-4.5,2.1-5.8,2.7c-1.8,0.9-3.6,2-4.4,3.9c-0.4,0.9-0.1,1.9-0.3,2.6c0,0.1,0.2,1.1,0.2,1.2c-0.1,0.1-3.4-0.5-4.1-0.6
				c-3.6-0.5-7.2-1-10.8-1.5c-2.6-0.4-5.8-1.4-8.1,0.2c-4.5,3-1.1,6.8,1.6,9.2c4.9,4.3,10.9,3.2,17,4c2.1,0.3,4.2,0.6,6.3,0.8
				c0.9,0.1,5.3-0.2,5.4-0.1c0.3,0.2,0.4,6.1,0.7,7.4c0.4,1.6,1.2,2,0.1,3.4c-0.9,1.2-3.8,2.2-5.2,2.6c-4.6,1.5-9.7,0.8-14.5,0.9
				c-3,0.1-8.9,2.1-5.3,6.2c1.3,1.5,5.8,0.7,6.4,2c0.2,0.4-1.3,3.1-1.4,3.8c-0.1,1-0.1,2,0.3,2.9c0.8,1.9,2.5,3,4.5,3.4
				c4.8,0.9,9.6-0.3,14.5,1c-0.6-1-1.2-2.1-1.7-3.1c0-0.3-7.1,1.8-8.2,2.5c-2.7,1.7-5.2,4.3-7.2,6.8c-1.4,1.7-2.5,3.7-0.7,5.6
				c2.8,3,7.1-0.5,10.1,0.8c0.7,0.3,0.1,0.5,0.7,1.9c0.4,1.1,1.1,1.9,2.1,2.5c1,0.5,2.1,0.3,3.1,0.7c0.3,0,0.7,0,1,0
				c0.5,1,0.9,1.9,1.4,2.9c0,0-3,0.4-3.7,0.5c-2.3,0.5-6.5,0.8-8.3,2.4c-2.5,2.2-0.4,4,0.1,6.4c0.2-0.8,0.4-1.6,0.6-2.4
				c-3.6,3.7-10,4.2-9.1,11c0.6,4.4,4.7,5.3,8.5,4.5c0.7-0.2,1.8-0.6,2.4-1c1.2-0.9-1.1,0-1.2,0.7c-0.4,1.6,1.7,2.8,2.9,3.2
				c3.1,0.9,7.3,0.4,10.5,0.2c2.3-0.1,3.8-0.6,6.1,0.5c2.1,1,2.7,1.3,0.7,2.1c-5.3,2-12.4-1.8-17.6,0.9c-3.6,1.8-2.4,6.7-2,9.9
				c0.7,6.4,2.2,13.1,5.9,18.4c4,5.6,8.7,2.6,14.2,5.1c0.2-1.5,0.4-3,0.6-4.6c-4.5,1.8-9.2,1.1-13.9,2.1c-2.3,0.5-3.6,1.3-3.7,3.8
				c0,1.9,1.8,0.8-1,1.9c-2.8,1-5.6,1.7-8.5,2c-3.7,0.4-8.7-0.6-11.9,1.6c-3.6,2.4-3.7,9.5-2.3,13.1c1,2.6,3.3,4,5.9,4.4
				c2.5,0.4,5.1,0,7.6,0c2.8,0,7.5-0.8,9.9,1.1c0.2-1.3,0.3-2.6,0.5-3.9c-3.4,2.2-9.2,0.5-8.7,6.6c0.4,5.9,6.7,6.6,11.4,6.8
				c-0.7-1.3-1.4-2.5-2.2-3.8c-0.2,0.4-1.8,1-2.1,1.3c-1.5,0.9-1.5,2.7-0.5,3.9c3.7,4.4,9.3,3.5,14.1,5.7c0.2-1.5,0.4-3,0.6-4.6
				c-9.6,1.3-19.5,2-29,3.8c-1.9,0.4-3.6,0.9-4.4,2.8c-0.9,2.3,1.5,5.9-1.3,7c-0.9,0.4-1.5,1.9-1.1,2.8c0.4,1.1,0.8,1.6,1.5,2.5
				c0.7,0.9,1.1,1.4,1.8,2.4c1.4,2.1,2.9,3.3,5.5,3.8c8.1,1.3,17.8-3.6,23.5,4.7c0.5-1.2,1-2.4,1.5-3.7c-7.4,1.8-14.5,2.5-20.3,7.8
				c-6.6,6-13.5,11.9-19.5,18.5c-0.9,1-1,2.6,0,3.5c0.9,0.8,2.4,0.9,3.1,1.5c0.2,0.2,0.6,1.7,1.2,2.5c1.7,2.1,4.1,2.1,6.6,2
				c10.6-0.7,21.3-0.2,31.9-0.2c-0.6-1.4-1.2-2.8-1.8-4.3c-4.7,4-12,3.1-17.1,7.2c-2.6,2.1-4.7,5-7,7.4c-1.4,1.5-2.8,3-2.7,5.2
				c0.2,4.3,5.6,6.5,9.3,5.2c1,0.2,1.5-0.2,1.6-1c0.7-1.2,0.2-1.3-1.5-0.4c-1.7,0.1-3.8,0.8-5.6,1.1c-4.5,0.7-9,1.1-13.5,1.1
				c-16,0-31.7-3.5-47.5-5.1c-7.8-0.8-15.6-1.1-23.5-0.4c-4.9,0.4-10.5,0.1-11.9,5.8c-0.8,3.1,4,4.5,4.8,1.3c1-3.9,18.5-2.6,22-2.4
				c8.1,0.4,16,1.5,24,2.7c14.4,2,28.9,4.3,43.4,2.4c3.9-0.5,11.9-0.5,14.4-4c2.1-3-0.5-6.1-3.6-6.4c-1-0.1-2.2,0.4-3.1,0.3
				c-0.6,0.1-1.2,0.2-1.8,0.3c-1.6-1.3-1.6-2.5,0.1-3.4c1.3-2.6,5.2-5.9,7.8-7.2c5.1-2.7,10.5-2.2,15.1-6.1c1.7-1.4,0.3-4.3-1.8-4.3
				c-9.6,0-19.2-0.2-28.7,0c-1.2,0-2.5,0.3-3.6,0.2c-2.4-0.2-1.6,0.1-2.7-1.9c-0.4-0.8-0.7-1.6-1.5-2.1c-0.7-0.4-2.3-0.1-2.8-0.6
				c0,1.2,0,2.4,0,3.5c5.3-5.8,11.2-10.9,17-16.1c3.2-2.9,5.8-5.3,10.1-6.5c3.5-1.1,7.1-1.5,10.6-2.4c1.5-0.4,2.4-2.4,1.5-3.7
				c-4-5.7-9.3-7.4-16.1-7.5c-3.2,0-7.6,1.2-10.8,0.4c-2.4-0.5-1.8-2.1-3.1-3.6c-0.3-0.4-1.8-1.1-1.9-1.5c-0.4,0.9-0.8,1.9-1.1,2.8
				c2.1-0.9,4-2.1,4.3-4.6c0.2-1.5-0.6-2.8-0.7-4.2c-0.1-1.1,0.1-0.7-0.4-0.3c0.6-0.5,2.1-0.3,2.9-0.4c9.1-1.1,18.2-2.4,27.4-3.6
				c2.1-0.3,2.5-3.7,0.6-4.6c-4-1.8-10.2-1.5-13.1-4.9c-0.2,1.3-0.3,2.6-0.5,3.9c1.8-1.1,2.9-1.1,3.9-3.1c0.9-1.7-0.2-3.7-2.2-3.8
				c-1.1,0-3,0.1-4-0.3c-1.1,0.1-1.7-0.3-1.7-1.3c-0.5-0.9-0.2-1.2,0.9-1c1.5-0.7,3.1-0.5,4.6-1.4c1.2-0.8,1.8-2.9,0.5-3.9
				c-2.2-1.8-4.2-2.4-7-2.5c-2.1-0.1-4.3,0-6.4,0c-1.9,0-7,0.9-8.5-0.6c-0.8-0.9-1.1-5.9-0.5-6.9c1.3-2.4,9-1.5,11.4-1.9
				c3.5-0.5,12.5-1.4,13.5-5.9c0.2-1.1-0.3-1.8-0.5-2.8c-1,1-1,1.4,0,1.1c0.3,0,0.6-0.1,0.9-0.1c3.9,0.4,9.2-0.5,12.8-2
				c1.7-0.7,2.8-3.6,0.6-4.6c-3.2-1.5-5.4-1.7-8.8-1.8c-5.1-0.1-6.9-7.6-7.9-11.7c-0.6-2.4-0.9-4.8-1.2-7.3c0-0.4-0.6-3.5-0.3-3.8
				c0.5-0.5,2.7-0.1,3.5-0.2c2.9,0,5.8,0,8.7-0.1c4-0.1,12.9-1.7,9.3-7.9c-1.3-2.3-5.1-4.2-7.6-4.8c-1.9-0.5-3.7-0.1-5.6,0.1
				c-2.7,0.2-5.5-0.2-8.2,0c-1.3,0.1,0.3,1.2,0.1,0.5c-0.2-0.4,0.1-1.1,0-1.6c-0.2-0.9-0.4-1.6-1-2.2c-1.5-1.5-3.1-0.8-4.8-0.4
				c-1.1,0.3-1.5,0.8-2.8,0.7c-3.5-0.3,1.1-3.4,2.5-4.3c1.7-1,4.5-2.2,4.7-4.6c0.1-0.9-1.7-3.1-1.9-1.9c0-0.2,3.9-0.9,4.1-1
				c2.9-0.7,7-0.5,9.3-2.8c3.7-3.9,0.7-9.8-4-10.8c-1.7-0.3-2.5,0.1-3.5-1.1c-0.6-0.7-0.3-2.1-1.3-3c-2.2-2.1-9.4,0.4-10.1-0.7
				c1.2,1.8,3.5-2.1,4.5-2.9c2-1.8,3.9-2.7,6.5-3.1c2.9-0.4,5.3-0.4,5.9-3.9c0.2-1.3-0.3-2.7-1.7-3.1c-3.4-0.9-6.8-1.3-10.4-1.2
				c-1.3,0-4.8,1-5.3-0.9c-0.2-0.7,1.2-2.9,1.3-3.9c0.1-1.6-0.3-3-1.5-4.1c-1-0.9-4.3-2.5-5.5-1.8c-0.2,0.1-1.1,1.8-0.8,2.3
				c0.1,0.1,3.9,0,2.8,0c1.9,0,3.7,0,5.6,0c3.7,0,7.3-0.3,10.8-1.7c5-2,9.1-4.3,7.5-9.9c-0.8-2.8-0.7-5.5-1.1-8.4
				c-0.3-1.9-0.9-3.2-2.8-3.9c-2.7-1-6.5-0.2-9.4-0.5c-4.3-0.5-8.5-0.8-12.8-1.1c-2-0.1-3.4-0.5-4.9-1.7c-0.2-0.1-1.8-2.1-2.2-1.7
				c0.2-0.2,3.7,0.5,4,0.5c2.8,0.4,5.7,0.8,8.5,1.2c3.3,0.5,10.8,3,12.3-1.9c0.3-1-0.2-1.9-0.1-2.8c0.4-2.3,2.3-2.8,4.3-3.7
				c2.4-1.1,5.8-2.1,6.9-4.8c0.8-2,0.2-3.9-1.7-4.8c-1.2-0.6-2.9-0.5-4.2-0.9c-2.9-0.8-5.5-2.1-8.1-3.5c0,1.4,0,2.9,0,4.3
				c2.6-1.2,4.9-0.3,7.3,0.3c2.1,0.6,3.9-1.8,2.8-3.7c-2.1-3.7-5-5.1-9-6.2c-1.9-0.5-4.7-0.3-6.3-1.2c-2-1.1-2.1-3.7-4.3-4.6
				c-0.8-0.3-2.3,0.1-2.9-0.2c-1.5-0.7-0.6,0.3-1.2-1.3c-1.3-3.6,1.1-4.5,2.5-7.1c1.9-3.5-0.9-6-4.3-6.4c-6.6-0.8-13.5-0.2-20.1-0.8
				c-7.8-0.7-15.5-1.4-23.3-2.1c-14.9-1.2-29.8-2.1-44.7-2.8c-14.7-0.7-29.4-0.4-44-2c-15-1.7-30.1-2.5-45.2-2.7
				C94.6,8,87.4,8,80.1,8.2c-7.5,0.1-15.3,1.1-22.7,0.5C50.9,8.1,44.5,7,38,6.7c-3.7-0.2-7.3-0.4-11-0.7c-2.3-0.2-4.3-0.5-6.3,0.9
				c-2.5,1.7-5,6.2-2.7,8.9c3.1,3.6,9.9,3.7,14.1,3.8c3.7,0.1,9.9-0.6,10.4,4.2c0.3,3.7-2.4,4.4-5.5,4.4c-6.7,0.1-12-1-18.4,1.8
				c-1.7,0.7-1.6,3.6,0,4.3c0.9,0.4,1.7,0.7,2.6,0.9c0.9,0.2,6.9-0.1,2.5,2.4c-1,0.6-3.3-0.1-4.6,0.3c-0.9,0.3-1.7,1-2.4,1.7
				c-1.5,1.3-0.6,3.6,1.1,4.2c1.2,0.4,2.4,0.8,3.5,1.1c-0.4-1.4-0.7-2.8-1.1-4.2c-3.3,3.2-8.3,2.7-12.4,3.9
				c-1.7,0.5-2.5,2.9-1.1,4.2c2.7,2.5,5.3,2,8.8,2.2c5.3,0.3,10.5,1.6,15.8,2.2c1.3,0.2,5.7-0.3,6.6,0.6c0.6,0.6-0.4,2.6-0.2,3.9
				c0.6,2.9,3.3,4.2,5.8,5.2c-0.2-1.5-0.4-3-0.6-4.6c-1.4,0.8-3.3,1.5-4.3,2.6c-1.1,1.2-1.1,2.7-3.1,3.3c-3.2,1-8.1-0.1-11.4-0.1
				c-6.5,0.1-11.8,1.7-15.7,7.1c-1,1.4,0.1,3.3,1.5,3.7c4.9,1.5,9.8,1.9,14.5,4c3.8,1.6,7.1,3.3,10.6,5.5c0.7,0.4,1.8,0.5,2.5,0
				c1.3-1,4.1-3.4,5.7-1.5c-0.1-1-0.3-2-0.4-3c0,0-3,0.4-3.5,2.3c-0.2,0.9,0,1.9,0.5,2.6c0.3,0.4,0.6,0.8,0.9,1.1
				c0.6,0.5,0.7,0.5,0.1,0.1c0.2,2.4-0.9,3.2,0.9,5.5c1.8,2.2,4.7,3.8,6.2,6.3c0.5-1.2,1-2.4,1.5-3.7c-2.4,0.7-3.2,1.1-4.7,2.8
				c-2.1,2.4-2.3,2.3-5.2,2.3c-1.6,0-3.2,0-4.8,0c-9,0.1-18,0-27,0c-1.4,0-2.4,1.1-2.5,2.5c0,0.5-0.1,1.1-0.1,1.6
				c-0.1,1.5,1.2,2.3,2.5,2.5c7.4,0.9,13.3,4.4,20.9,2.2c-0.6-1.5-1.3-3-1.9-4.6c-3.1,2.3-5.1,5.4-1.9,8.6c1.1,1,7.5,4.3,7.6,5.6
				c0.1,2.4-7.6,0.6-8.9,0.8c-3.6,0.5-4.7,4.4-1.9,6.8c4.9,4.2,11.9,3.3,17.7,3.2c7.6-0.2,15.1,0.2,22.7-0.8
				c7.5-1,14.9-2.3,22.4-3.6c7.9-1.3,15.8-2.4,23.7-2.6c3.6-0.1,7.1,0.1,10.7,0.2c4,0.1,7.7-0.5,10.5,3.2c0.7-1.3,1.4-2.5,2.2-3.8
				c-6-0.6-12-1.5-18.1-1.3c-6,0.2-12,1.1-17.9,1.9c-13.3,1.8-26.6,4.6-40.1,5.8c-6.5,0.6-13.2,0.6-19.6-0.7
				c-3-0.6-8.6-3.7-11.5-1.2c-0.9,0.8-1.2,1.8-1.1,2.9c0,0.9,0.5,1.5,0.6,2.4c0.2,1.2,0.9,1,0,1.7c-1.5,1.2-7.6-0.7-9.1-1.1
				c-3.2-0.7-6.3-1.5-9.6-1.9c-1.9-0.3-3.5,1-3.1,3.1c0.5,2.5,2.1,4.5,4.6,5.3c1.2,0.8,1.2,0.6,0.1-0.5c-0.5,0.3-0.9,0.7-1.3,1.1
				c-0.6,0.6-1,1.5-1.1,2.4c-0.2,5.5,7.6,3.1,9.7,5.9c0.3-1.1,0.6-2.3,0.9-3.4c-2.2,1.2-4.4,1.2-6.8,1.4c-2.1,0.3-3.3,2.5-1.8,4.3
				c3.9,4.3,9.5,6,14.3,9.1c0.2-1.5,0.4-3,0.6-4.6c-3.9,1.2-18.3,2.9-16.1,9.8c1,3.1,5.5,5.4,8,7c4.4,2.7,9,3.7,14,4.5
				c2.3,0.4,5.3,1.3,7.7,1.2c0.7,0,2.4,0.8,1.3-0.5c-0.8-1-0.4-0.5-1.6-0.2c-2.9,0.8-5.6,4.4-7.3,6.7c-1.5,2-3.2,5.3-1.7,7.8
				c1.5,2.6,4.8,1.2,6.5,3.1c0.6-1.4,1.2-2.8,1.8-4.3c-6.9,0-14.5-0.5-20.6,3.6c-2.9,1.9-4.2,6.3-0.5,8.3c2,1.1,4.7,0.5,6.8,0.4
				c2.3-0.1,4.5-0.3,6.8-0.4c0.8,0,1.7-0.1,2.5-0.2c0.8,0.1,0.8-0.2,0-0.8c-1.9,4-5.3,3.5-9.1,3.8c-3.6,0.3-7,0.8-10.5,1.8
				c-2.9,0.8-2,4.6,0.7,4.9c6.6,0.7,13.2-1.2,19.7-0.4c2.7,0.3,4.7,1.2,5.5,4c0.3,1.1,0.5,3,0.2,4.1c-0.6,1.9-1.5,1.5-3.1,1.7
				c-1.9,0.3-3,1.1-4.2,2.6c-1,1.3-0.6,2.1-2.4,2.8c-1.6,0.6-3.6,0.7-5.3,1.1c-4.9,1.2-9,2.6-10,8.1c-0.4,2.3,1.6,3.7,3.7,2.8
				c2.7-1.2,4.8-1.5,7.5,0.1c0.2-1.5,0.4-3,0.6-4.6c-2.6,0.6-5,1.7-7.4,2.8c-2.4,1-6.5,0.9-8.4,2.6c-4.2,3.7,1.8,7.1,4.6,8.5
				c2.4,1.2,6.8,2.3,6.8,5.2c0,1.7-1,2.9,0.5,4.4c3,3.2,11.3,0.4,14.9-0.1c1-0.1,11.5-2,11.5-2c0-0.2-5.1,3.7-5.4,3.9
				c-3.1,1.8-8.3,1.2-11.9,1.7c-3.1,0.4-6.2,1-9.4,1.1c-3,0.1-6.7,0.1-7.7,3.6c-0.4,1.5,0.3,3.2,0,4.2c-0.5,2.2-2,3.9-2.2,6.3
				c-0.4,4.7,3,7.5,7,9.3c7.7,3.5,15.9,0.7,23.7,2.9c-0.4-1.4-0.7-2.8-1.1-4.2c-1.6,1.8-4.8,1.5-6.7,3.1c-1.3,1-2.1,2.4-2.3,4
				c-0.1,1.1,0,2.2,0.3,3.2c0.1,0.4,0.4,0.8,0.4,1.2c0.3,1.6,1.1,0.9-0.1,1.7c-1,0.7-5.4,0.2-6.6,0.3c-2.1,0.2-4.2,0.4-6.3,0.7
				c-3,0.4-6.7,2.8-4.1,6.2c1.1,1.4,2.8,1.5,4.4,1.7c4.3,0.6,6.3,1.9,9.3,5c2,2,3.8,2.2,0.1,1.9c-1.9-0.2-4.6-0.7-6.5,0.2
				c-1.7,0.8-1.8,1.8-2.3,3.4c-0.6,1.9,0.5,1.3-1.6,1.9c-1.4,0.4-2.7,0.2-4.1,0.9c-3.6,1.7-4.9,5.9-3.5,9.5c2.3,5.7,8.8,3.1,13.4,5
				c1.2,0.5,0.4-0.8,0.3,1.2c0,0.7-0.1,1.4,0.1,2.2c0.5,1.7,1.9,2.8,3.3,3.7c2.7,1.5,4.3,2.1,5.1,5.4c0.5,1.9,0.7,3.3,2.3,4.6
				c1.6,1.2,3.6,1.4,5.5,1.5c4.5,0.2,9.1,0,13.6,0c8.6,0,17.3,0,25.9,0c35.2,0,70.5,0,105.7,0c19.6,0,39.2,0,58.9,0
				c19.9,0,39.9,0.7,59.7-0.4c1.4-0.1,2.4-1.1,2.5-2.5c0-0.2,0-0.5,0-0.7c0.1-1.1-0.8-2.2-1.8-2.4c-2.9-0.7-5.9-1.4-8.8-2.1
				c0.2,1.5,0.4,3,0.6,4.6c3-1.7,19.4-9.3,10.3-14c-0.2-0.1-0.4-0.2-0.6-0.3c-1.5-0.9-1.9-0.5-1.3,1.2c0.7,0.2,3.2-0.8,3.7-1
				c1.4-0.6,2.6-1.5,3.3-2.9c0.6-1.5,0.6-3.3-0.6-4.6c-1-1.1-3.5-1-4.1-1.9c-0.5,1.2-1,2.4-1.5,3.7c3.1-1.2,9-2.4,9.4-6.4
				c0.3-3.1-2.3-4.8-5-4.4c-2.1,0.3-4.3,1.7-6.4,2.3c-3.5,1-7.1,1.6-10.8,2c-6.6,0.6-13.2,0.3-19.7,0c0,1.7,0,3.3,0,5
				c7.6-0.5,21,2.6,21.4-8.6c0.2-3.8-3.3-5.3-6.7-4.5c-2.6,0.7-5,2.2-7.5,3c-3.4,1.1-6.9,0.4-10.4,0.3c-7-0.3-13.9-0.4-20.8-1.5
				c-6.2-1-12.4-2-18.6-2.8c-13.3-1.7-26.4-1.4-39.8-1.5C185.1,310.6,185.1,315.6,188.3,315.6z"/>
		</g>
	</g>
	<g>
		<path class="st0" d="M193,311.3c4.1,0,8.1,0.2,12.1,0c16.7-0.8,33,2.2,49.3,4.8c8,1.3,16.2,0.6,24.3,1.4c2.9,0.3,6.1-1.6,9.1-2.7
			c1.9-0.7,3.9-2,5.7-1c1.6,0.9,0.3,2.9,0.1,4.3c-0.3,2.3-2.2,3.4-4.7,3.4c-4.5,0-9.1,0-13.6,0.3c12,0.7,24,0.9,35.5-3.5
			c1.2-0.5,2.9-1.9,3.8,0.1c0.7,1.6-1.1,2.4-2.4,3.1c-1.6,0.8-3.4,1.3-5,2c0.5,1.3,1.7,1.1,2.5,1.4c1.1,0.4,2.4,0.6,2.3,2
			c-0.1,1.2-1.1,1.9-2.2,2.3c-1.1,0.4-2.3,0.6-3.4,0.9c-1,0.3-2,0.8-1.9,1.9c0,0.9,1,1.1,1.8,1.3c5,1.2,2.2,3.3,0.4,4.6
			c-2.6,1.9-5.6,3.4-9.3,5.5c3.6,0.8,6.2,1.5,8.8,2.1c0,0.2,0,0.5,0,0.7c-2.6,0.1-5.2,0.4-7.8,0.4c-85.1,0-170.3,0-255.4,0.1
			c-3.9,0-6.2-0.9-5.9-4.9c0.2-2.2-1.3-3.6-3.3-4.8c-2.4-1.6-7.2-1.9-4.7-6.8c0.6-1.2-1.8-1.9-3.3-2.2c-2.3-0.3-4.7-0.9-7-0.9
			c-4.1,0-4.7-2.9-4.6-5.3c0-2.4,2.2-4,5.1-4.2c2.8-0.2,5.5,0.1,4.7-3.9c-0.5-2.3,2.2-1.6,3.8-1.7c2.7-0.1,6.6,1.4,7.6-0.5
			c1.4-2.5-2.7-4.1-4.2-6.2c-2.4-3.5-6.2-4.6-10.4-4.9c-1.1-0.1-2.8-0.1-2.7-1.5c0.1-1.3,1.7-1.3,2.8-1.4c3.9-0.4,7.8-1.1,11.6-0.9
			c4,0.2,4.9-1.6,3.7-4.2c-2.9-5.7,0.2-7.5,5.7-8.3c0.5-0.1,0.9-0.8,1.7-1.5c-4-1.4-7.7-0.6-11.3-0.8c-3.5-0.1-7.1,0.1-10.5-1.3
			c-7.6-3.1-8.8-6-5.2-12.8c0.2-0.4,0.9-0.8,0.8-1.1c-2.7-7,2.9-5.2,6.9-5.7c5.4-0.7,10.7-1.8,16.1-1.7c4.7,0.1,6.3-4.2,10.1-5.4
			c0.8-0.3,0.5-2-0.3-2.9c-1.2-1.4-2.9-1.4-4.6-1c-5.9,1.3-12,2-18,2.8c-3,0.4-4.6,0.1-3-2.9c1.3-2.5-0.7-3.4-2.3-4.4
			c-2.8-1.7-5.9-3-8.8-4.6c-0.9-0.5-1.7-1.1-1.7-2.2c0-0.9,1-1.2,1.8-1.2c4.9-0.3,8.5-3.5,13.5-4.5c-3.4-2.5-6.5-1.7-10-0.1
			c0.3-3.5,2.6-4.8,5.2-5.5c2.6-0.8,5.2-1.3,7.9-1.8c1.9-0.4,3.6-0.8,4.1-2.9c0.5-2.3,2.1-2.9,4.5-2.6c2.5,0.4,3.2-1,3.4-3
			c1.1-8.5-2.1-12.5-12-11.8c-4.8,0.3-9.5,1.2-15.7,0.4c6.5-2,11.9-1.5,17.2-2.5c1.6-0.3,5.1-5.1,4.4-6.4c-0.7-1.2-2.1-0.8-3.2-0.8
			c-3.9,0.2-7.8,0.5-11.6,0.7c-1.4,0.1-3.3,0.3-3.6-1.6c-0.3-1.7,1.2-2.4,2.6-3c3.5-1.7,7.1-2.9,11.1-2.7c2.3,0.1,4.6,0,7.2,0
			c-1.6-2.8-6.1-0.5-6.3-3.4c-0.2-3,2.6-5.2,4.5-7.5c1.1-1.4,2.6-2.4,4.4-3.1c1.1-0.4,2.5-0.9,2.3-2.2c-0.2-1.7-2-1.2-3.3-1.4
			c-4.5-0.8-9-1.2-13.5-2.2c-5.2-1.2-9.1-4-13-6.9c-3-2.2-1.9-4,1.2-5c3.6-1.2,7.3-2.2,11.6-3.5c-4.7-3.4-10.4-4.5-13.8-8.7
			c2.7-0.5,5.6-0.1,8.1-1.8c-1.1-2.3-3.7-1.7-5.5-2.4c-2.1-0.8-6.7-1.4-1.4-4.4c2.2-1.2,0.6-1.9-0.5-2.6c-1.7-1-4.2-1.4-4.4-4.2
			c6,0.7,11.4,2.9,17.4,3.1c4.6,0.2,6.4-0.7,4.4-4.9c-1.2-2.5-0.6-3.7,2.4-2.7c14.1,4.7,28.3,2.5,42.4,0.4
			c13.5-2.1,26.9-4.5,40.6-5.6c6.4-0.5,12.8,0.5,19.8,1.2c-3.6-5.7-9.1-4.2-13.8-4.5c-19.8-1.2-38.8,4-58.2,6.4
			c-8.9,1.1-17.9-0.1-26.9,0.9c-2.9,0.3-6.2-1.7-9.3-2.8c-0.5-0.2-1-1-1-1.4c0-0.9,0.9-1.2,1.8-1.2c2,0.2,4,0.4,6,0.7
			c2.4,0.3,4-0.7,4.8-2.6c0.8-1.8-0.5-2.9-1.9-3.9c-1.7-1.3-3.3-2.6-5.1-3.8c-2.7-1.7-4-3.4-0.1-5.8c-7.7,2.7-13.6-1.7-20.2-2.3
			c0-0.5,0.1-1.1,0.1-1.6c5.1,0,10.3,0,15.4,0c4.7,0,9.5,0.1,14.2,0c3.8-0.1,8.4,1.3,9.8-4.1c0.1-0.5,1.7-0.7,2.9-1.1
			c-0.9-2.2-3.5-3.1-4.6-4.9c-1-1.7-4.6-2.6-1.7-5.6c1-1.1-2.1-1.7-2.1-3.3c0.5-1.4,2.8,0.1,3.2-1.7c-0.3-0.3-0.6-0.8-0.9-0.9
			c-2.4-0.2-5.3-2-7,0.9c-0.5,0.9-0.5,1.4-1.4,0.6c-3.4-3-8-4-11.9-6c-4-2-8.8-1.8-13.1-3.3c3.3-5.2,8.6-5.9,14.2-5.9
			c2.9,0,5.8,0,8.6,0c2.8,0,5.8,0.6,6.5-3.3c0.2-1,2.5-1.8,4.3-3c-3.2-1.1-5.1-2.5-3.4-5.8c1.5-2.8-0.8-3.5-3.3-3.5
			c-8.4,0-16.3-2.8-24.7-2.7c-1.4,0-3.1,0.3-4.3-1.4c4.4-1.6,9.9-0.6,13.5-4.6c-1.2-0.4-2.2-0.7-3.5-1.1c0.6-0.5,0.9-0.9,1.3-1
			c0.4-0.2,1-0.3,1.5-0.2c3.2,0.2,6.9-0.1,7.1-3.4c0.2-3.9-3.9-3.8-7.2-4c-0.3,0-0.6-0.2-1.4-0.6c3.7-1.9,7.4-2.2,11.2-2
			c1.5,0.1,3,0.4,4.5,0.5c7.8,0.4,10.2-2.2,9.2-9.4c-0.3-2-1.2-3-3.4-3.4c-3.7-0.6-7.4-0.9-11.1-0.9c-2.6,0-5.1-0.1-7.3-1.4
			c-1.5-0.8-4.3-1-3.2-3.3c0.9-2,2.2-4.5,5.4-4C39.5,7.6,49.4,6.9,59,8.8c2,0.4,4,0.5,6,0.5c30.2-1.1,60.4-1,90.5,2.6
			c10,1.2,20.3,0.7,30.4,1.1c26,1,51.9,2.8,77.8,5.3c6.2,0.6,12.5,0.5,18.7,0.7c1.3,0.1,3,0,3.7,1.1c0.9,1.5-0.8,1.9-1.7,2.8
			c-2.7,2.8-1.4,6.1-1.1,9.3c0.2,2.4,2.6,1.8,4.4,1.7c0.9,0,1.9,0.2,2.1,1c1,4.7,5.5,3.8,8.8,4.7c3.2,0.9,6.6,1.2,8.5,5.3
			c-3.4-0.9-6.1-1.9-9.2-0.1c3.7,2,7.2,3.7,11.3,4.3c0.8,0.1,2-0.1,2,1c0,0.7-0.5,1.6-1.1,1.9c-2.3,1.3-4.7,2.4-7.2,3.5
			c-2.3,1-4.2,2.4-3.4,4.9c1,3.2-0.8,3.4-3.5,3c-5.5-0.8-11-1.6-16.6-2.3c-1.8-0.2-3.8-1-4.8,1.2c-1,2.2,1.4,2.5,2.4,3.8
			c2.5,3.2,5.9,3.2,9.4,3.2c6.1,0,12,1.9,18.1,1.3c1.7-0.1,2.9,0.7,2.4,2.1c-0.6,1.9,0.7,3.7,0.5,5.3c-0.3,2.5,2.7,5.2,0.5,6.9
			c-3.3,2.5-7.4,4.4-11.9,4.7c-3.7,0.2-7.4,0.1-11.2,0.1c-1.1,0-2.7-0.1-2.8,1.3c-0.1,1.2,1.4,1.2,2.3,1.3c3.9,0.5,6.4,1.2,4,5.8
			c-1.3,2.6-0.3,5.5,4.7,5.1c4.1-0.4,8.3-0.3,12.3,0.9c0.1,1.9-1.4,2-2.4,2c-6.8-0.1-10,4.5-13.7,8.4c-1.8,1.9-0.8,2.7,1.5,2.7
			c1.9-0.1,3.7-0.3,5.5-0.5c1.9-0.2,3.6,0,3.4,2.3c-0.2,2.9,1.9,2.8,4,2.8c2.6,0.1,4.6,0.9,5,3.6c0.3,2.8-1,4.2-4.2,4.4
			c-2.2,0.2-4.3,0.8-6.4,1.4c-2,0.6-5.8,0.2-2.7,4c1,1.2-1.4,1.7-2.3,2.5c-1.8,1.5-4.7,2-5.6,4.5c-0.5,1.5-0.7,3.1,0.3,4.5
			c1,1.4,2.8,0.5,4.2,0.7c1.7,0.3,6.2-4.3,4.8,2.1c-0.2,0.8,1.9,0.9,3.1,0.9c3.2,0,6.5,0.3,9.6-0.2c4-0.7,6.2,1.6,8.8,3.3
			c0.8,0.5,1,1.3,0.6,2c-0.7,1.6-2.2,2.4-4,2.4c-4.1,0.1-8.1,0.1-12.2,0.1c-6.2,0-6.3,0.2-5.8,5.7c0.6,6.5,1.7,12.8,5.2,18.6
			c1.6,2.7,3.2,4.5,7.1,3.6c2.1-0.4,4.2,0.2,6.8,1.5c-4.5,2.3-8.9,1-12.8,2c-1.6,0.4-4.1-0.4-2.4,2.7c0.9,1.6-1.3,2.1-2.6,2.7
			c-5.3,2.3-11.1,2.7-16.8,2.7c-6.8,0.1-5.1,4.7-5.4,7.9c-0.3,3.3,1.1,6.1,5.7,6c3.9-0.1,7.8-0.1,11.7-0.1c2,0,4,0,5.8,1.8
			c-2.3,2-7.8,0.1-7.5,4.1c0.4,4.4,5.1,4.5,8.9,4.6c-0.4,1.9-2.1,1.2-3,2.2c2.8,4.1,8.4,2.6,13.6,5.3c-9.6,1.3-17.8,2.6-26,3.5
			c-6.4,0.7-6.5,0.5-5.1,6.2c0.7,2.6-1.4,3.1-2.9,3.8c0.2,1.8,2.2,1.6,2.5,2.5c1.3,5.8,5.9,4.4,10.1,4.1c1.8-0.1,3.7-0.1,5.6-0.1
			c5.6-0.1,10.6,0.9,13.9,6.2c-6.5,1.7-13.7,1.9-18.6,6.6c-6.7,6.4-14.1,12.3-20.2,19.1c1,1.7,3.5,0,3.6,1.5
			c0.5,5.3,4.6,3.5,7.8,3.5c9.5,0,19.1,0,29.6,0c-3.7,3.6-8.2,3-11.7,4.4c-3,1.3-5.6,2.4-7.5,4.9c-1.4,1.9-3.2,3.5-4.9,5.3
			c-1.4,1.4-2.9,2.8-1.3,4.8c1.4,1.9,3.4,1.7,5.5,1.3c0.8-0.1,1.7-0.3,2.5-0.4c1.2-0.1,2.6-0.3,3.1,1c0.6,1.7-1.1,2.1-2.4,2.4
			c-7.4,1.8-14.8,2.8-22.5,2.7c-20.5-0.3-40.4-5.8-60.9-6c-4.9,0-9.8,0.5-14.6,1C194.8,308,193.2,309,193,311.3z"/>
		<g>
			<path class="st0" d="M193,313.8c9.8,0,19.6-0.4,29.4,0.4c10.9,0.9,21.6,3,32.4,4.5c4.6,0.6,9.1,0.8,13.7,0.9
				c4.2,0.1,9,1.1,13.2,0.3c2-0.4,3.8-1.3,5.7-2.1c1.4-0.6,3.8-2.3,4.1-0.9c0.6,3-14.1,2.4-16,2.5c-3.2,0.2-3.2,4.8,0,5
				c7.9,0.4,15.8,0.7,23.6-0.4c3.7-0.5,7.3-1.3,10.8-2.5c-0.3,0.1,3.1-0.9,3.1-1.2c0.5-2.6-5.6,0.7-6.4,1c-1.3,0.5-2.6,2.3-1.5,3.7
				c0.7,1,1.3,1.4,2.2,2c0.2,0.1,1.9,0.5,1.9,0.6c0-0.3-3.1,0.4-3.3,0.4c-2,0.7-4,2.2-3.7,4.6c0.1,0.9,0.6,1.8,1.2,2.3
				c0.3,0.3,2.9,1.1,2.6,0.8c0-0.1-2.4,1.6-3.4,2.2c-2.1,1.2-4.2,2.4-6.3,3.6c-1.8,1-1.5,4.1,0.6,4.6c2.9,0.7,5.9,1.4,8.8,2.1
				c-0.6-0.8-1.2-1.6-1.8-2.4c0,0.2,0,0.5,0,0.7c0.8-0.8,1.7-1.7,2.5-2.5c-16.5,0.9-33.2,0.4-49.7,0.4c-16.6,0-33.3,0-49.9,0
				c-32.6,0-65.2,0-97.8,0c-16.6,0-33.3,0-49.9,0c-4,0-8,0-12,0c-1.4,0-3.9,0.5-5.2,0c-2.2-0.8-1.6-1.4-2.3-3.6
				c-0.6-1.9-1.2-3.2-2.8-4.6c-1-0.8-5-2.1-5.5-3.1c-0.6-1.4,0.9-3,0.1-4.6c-0.7-1.4-2.4-2-3.8-2.4c-2.5-0.7-6.4-0.1-8.7-1.2
				c-2.4-1.1-2.5-3.2-0.2-4.4c1.1-0.6,3-0.1,4.3-0.4c1.4-0.4,2.6-1.2,3.2-2.5c0.3-0.6,0.5-1.5,0.5-2.2c-0.2-2.4-1.2-0.5,0.3-0.6
				c3.5-0.1,9.2,2,10.9-2.4c1.6-4-4-8.3-6.6-10.6c-1.9-1.7-4.4-2.7-7-3.2c-0.2,0-3.2-0.6-3.4-0.5c-3,2.9,5.6,1.5,6,1.4
				c3.8-0.4,11.6,1.2,12.4-4.4c0.4-2.5-2.8-5.5-0.6-7.4c1-0.9,2.8-0.5,3.9-1c1.2-0.5,1.9-1.3,2.8-2.2c1.3-1.4,0.8-3.7-1.1-4.2
				c-7.8-2.2-16.4,0.9-23.7-3c-3.3-1.7-4-3.7-2.4-7c0.4-0.8,1.6-2,1.7-2.9c0.2-1-0.6-1.8-0.5-2.7c-0.6-0.8-0.5-1.1,0.5-1
				c0.6,0,1.2,0,1.8,0c0.9,0,1.8,0,2.7-0.1c4.2-0.4,8.3-1.3,12.5-1.6c3-0.2,5.7,0.1,8.4-1.3c1.2-0.6,2.2-1.6,3.2-2.5
				c1.1-0.8,2.6-1.4,3.6-2.3c3.3-3,0.2-7.9-3.6-8.5c-3.1-0.5-6.7,0.9-9.8,1.4c-1.4,0.2-12.1,1.9-12.1,2c0.3,0.5,0.9-3.5,0.2-4.8
				c-1.3-2.3-4.6-3.5-6.9-4.6c-1.3-0.6-4.4-1.5-5.2-2.6c1,1.4,0.9,1.2,3,0.5c3.4-1.1,6.5-3,10.1-3.8c2.1-0.5,2.4-3.5,0.6-4.6
				c-4.3-2.6-8-2-12.5-0.1c1.2,0.9,2.4,1.9,3.7,2.8c0.9-4.7,7.5-4.7,11.3-5.6c2.7-0.7,3.7-1.5,5.4-3.5c0.9-1,0.9-1.4,2.5-1.8
				c0.6-0.1,1.3,0.1,2-0.1c1.1-0.3,1.9-0.8,2.6-1.6c1.6-1.9,1.6-5.4,1.5-7.8c-1-15.2-20.7-8.8-30.4-9.9c0.2,1.6,0.4,3.3,0.7,4.9
				c4-1.2,8-1.5,12.2-1.9c2-0.2,4.4-0.1,6.2-1.1c2.5-1.4,6-5.9,5-9c-1.8-5-11.7-2.2-15.3-2c-1.1,0.1-2.4-0.2-2.8,0.6
				c0.5-0.9,4.1-1.8,5-2.1c4.2-1.3,8.7-0.8,13.1-0.8c2.3,0,3.1-2.7,1.8-4.3c-1.6-2-3.2-1.1-5-2.3c-1.2,0.1-1.4-0.2-0.4-0.8
				c0.7-0.7,1.3-1.5,1.9-2.2c0.8-1,1.7-2.1,2.7-2.9c2.1-1.8,10.2-4.7,5.1-8.9c-1.8-1.5-5.5-1.3-7.5-1.6c-4.2-0.6-8.6-1-12.6-2.6
				c-0.7-0.3-10-4.9-9.6-5.9c0.5-1.4,11-3.4,12.4-3.8c2.1-0.6,2.4-3.4,0.6-4.6c-4.4-2.9-9.7-4.4-13.3-8.4c-0.6,1.4-1.2,2.8-1.8,4.3
				c3.4-0.4,6.2-0.5,9.3-2.1c1.1-0.6,1.7-2.4,0.9-3.4c-1.4-1.9-2.7-2.6-5-3.1c-1-0.2-2.1-0.6-3.1-0.8c-2.6-0.5-0.2,0.5,0.8,0.2
				c1.7-0.6,2.1-3.1,1.4-4.5c-1.2-2.2-5.1-2.1-5.6-4.7c-1,1-2.1,2.1-3.1,3.1c5.2,0.7,22.1,7.6,25.4,0.4c0.6-1.3,0.3-2.7,0-4.1
				c-0.1-0.2-0.2-0.4-0.3-0.6c-0.5-2-0.8-2.3-0.8-0.9c-0.4,1.1,0.2,1.5,1.8,1.3c0.6,0.2,1.2,0.3,1.8,0.5c6.2,1.6,12.7,2,19.1,1.7
				c12.8-0.5,25.6-3.2,38.3-5.2c7.5-1.1,15-2.3,22.6-2.8c6.6-0.4,13.2,0.5,19.8,1.2c1.8,0.2,3.2-2.3,2.2-3.8
				c-2.9-3.9-6.3-5.5-11.1-5.7c-6-0.2-12.2-0.4-18.2,0c-14.6,0.9-28.9,4.3-43.3,6.1c-7.5,0.9-15.1,0.5-22.6,0.7
				c-1.9,0.1-3.9,0.4-5.8,0.4c-1.5,0-5.6-2.1-6.4-1.9c-1.1,0.3-0.8,1,0.3,1.7c0.9,0.5,3.3,0.5,4.4,0.5c3.4,0,7.1-2.5,6.9-6.3
				c-0.1-2-1.4-3.2-2.8-4.4c-0.8-0.7-7-4.7-5.8-5.6c2.2-1.6,1-5.4-1.9-4.6c-6.8,2-12.9-1.5-19.6-2.4c0.8,0.8,1.7,1.7,2.5,2.5
				c0-0.5,0.1-1.1,0.1-1.6c-0.8,0.8-1.7,1.7-2.5,2.5c10,0,20.1-0.1,30.1,0c2.5,0,5.3,0.4,7.6-0.7c2.4-1.1,2.8-3.8,5.2-4.5
				c1.6-0.4,2.3-2.3,1.5-3.7c-1.4-2.4-6.5-5.4-6.6-7.6c0-1,1.2-1.6,0.7-3c-0.4-1.1-1.9-1.5-2.2-2.5c-0.2,0.8-0.4,1.6-0.6,2.4
				c0.2-0.2,1.6-0.2,2-0.4c0.8-0.4,1.2-1,1.7-1.7c0.6-1,0.3-2.2-0.4-3c-1.5-1.8-4.3-2.2-6.5-2.3c-3-0.1-3.5,1.6-5.3,3
				c0.8,0,1.7,0,2.5,0c-3.9-2.4-7.7-4.2-11.9-6.1c-4.7-2-9.5-2.4-14.4-3.9c0.5,1.2,1,2.4,1.5,3.7c4.7-6.6,14.7-4.5,21.8-4.6
				c2,0,3.9,0,5.6-1.3c0.8-0.6,1.1-1.2,1.6-2c1.2-1.8,1.9-2.2,3.8-3.3c2-1.2,1.3-3.8-0.6-4.6c-2.8-1.1-0.2-5.9-2.4-8
				c-1.8-1.6-4.5-1.3-6.7-1.5c-4.5-0.2-8.9-1.1-13.4-1.8c-2-0.3-4-0.6-5.9-0.7c-1.7-0.1-4.7,0.5-6.1-0.8c-0.4,1.4-0.7,2.8-1.1,4.2
				c5.3-1.6,10.4-1.2,14.6-5.2c1.4-1.3,0.6-3.6-1.1-4.2c-1.2-0.4-2.4-0.8-3.5-1.1c0.4,1.4,0.7,2.8,1.1,4.2c1.7-1.5,5.7-0.3,7.8-1.7
				c1.9-1.2,2.8-3.1,2.7-5.3c-0.4-6.2-5.8-4.4-9.8-6.2c0,1.4,0,2.9,0,4.3c6.2-2.7,12-0.5,18.3-1.3c3.2-0.4,6.1-1.7,7.4-4.9
				c1.2-2.8,1.2-7.5-0.5-10.1c-2.4-3.6-8.5-3.3-12.3-3.5c-3-0.2-8.3,0.8-10.6-1.5c0,0-1.1-0.3-1.1-0.4C25.9,8.9,31,9,31.6,9
				c7.1-0.2,15,0.7,22,1.5c6.7,0.8,12.6,1.2,19.4,1c7.2-0.2,14.4-0.3,21.7-0.4c29.3-0.1,58.3,3.6,87.5,4.3
				c14.9,0.3,29.8,1.3,44.7,2.3c14.2,1,28.3,2.8,42.5,3.4c3.6,0.2,8.7,1.1,12.2,0.3c0.9-0.2,2.9-2.2,1.9-0.9c-0.8,1-1.7,1.6-2.3,2.9
				c-1.4,3-1.5,9.7,1.3,12c1.7,1.4,3.8,0.3,5.4,1.4c1.2,0.8,1.7,2.8,3.3,3.7C295.7,43,302,41,305,46.3c0.9-1.2,1.9-2.4,2.8-3.7
				c-4.1-1.1-7.2-1.6-11.1,0.2c-1.7,0.8-1.6,3.5,0,4.3c3.2,1.7,6.6,3.4,10.2,4.2c0.4,0.1,1.6,0.5,2,0.4c0.7-0.3-1.1-1-1.5-1
				c-1.3-0.1-4.5,2.1-5.8,2.7c-1.8,0.9-3.6,2-4.4,3.9c-0.4,0.9-0.1,1.9-0.3,2.6c0,0.1,0.2,1.1,0.2,1.2c-0.1,0.1-3.4-0.5-4.1-0.6
				c-3.6-0.5-7.2-1-10.8-1.5c-2.6-0.4-5.8-1.4-8.1,0.2c-4.5,3-1.1,6.8,1.6,9.2c4.9,4.3,10.9,3.2,17,4c2.1,0.3,4.2,0.6,6.3,0.8
				c0.9,0.1,5.3-0.2,5.4-0.1c0.3,0.2,0.4,6.1,0.7,7.4c0.4,1.6,1.2,2,0.1,3.4c-0.9,1.2-3.8,2.2-5.2,2.6c-4.6,1.5-9.7,0.8-14.5,0.9
				c-3,0.1-8.9,2.1-5.3,6.2c1.3,1.5,5.8,0.7,6.4,2c0.2,0.4-1.3,3.1-1.4,3.8c-0.1,1-0.1,2,0.3,2.9c0.8,1.9,2.5,3,4.5,3.4
				c4.8,0.9,9.6-0.3,14.5,1c-0.6-1-1.2-2.1-1.7-3.1c0-0.3-7.1,1.8-8.2,2.5c-2.7,1.7-5.2,4.3-7.2,6.8c-1.4,1.7-2.5,3.7-0.7,5.6
				c2.8,3,7.1-0.5,10.1,0.8c0.7,0.3,0.1,0.5,0.7,1.9c0.4,1.1,1.1,1.9,2.1,2.5c1,0.5,2.1,0.3,3.1,0.7c0.3,0,0.7,0,1,0
				c0.5,1,0.9,1.9,1.4,2.9c0,0-3,0.4-3.7,0.5c-2.3,0.5-6.5,0.8-8.3,2.4c-2.5,2.2-0.4,4,0.1,6.4c0.2-0.8,0.4-1.6,0.6-2.4
				c-3.6,3.7-10,4.2-9.1,11c0.6,4.4,4.7,5.3,8.5,4.5c0.7-0.2,1.8-0.6,2.4-1c1.2-0.9-1.1,0-1.2,0.7c-0.4,1.6,1.7,2.8,2.9,3.2
				c3.1,0.9,7.3,0.4,10.5,0.2c2.3-0.1,3.8-0.6,6.1,0.5c2.1,1,2.7,1.3,0.7,2.1c-5.3,2-12.4-1.8-17.6,0.9c-3.6,1.8-2.4,6.7-2,9.9
				c0.7,6.4,2.2,13.1,5.9,18.4c4,5.6,8.7,2.6,14.2,5.1c0.2-1.5,0.4-3,0.6-4.6c-4.5,1.8-9.2,1.1-13.9,2.1c-2.3,0.5-3.6,1.3-3.7,3.8
				c0,1.9,1.8,0.8-1,1.9c-2.8,1-5.6,1.7-8.5,2c-3.7,0.4-8.7-0.6-11.9,1.6c-3.6,2.4-3.7,9.5-2.3,13.1c1,2.6,3.3,4,5.9,4.4
				c2.5,0.4,5.1,0,7.6,0c2.8,0,7.5-0.8,9.9,1.1c0.2-1.3,0.3-2.6,0.5-3.9c-3.4,2.2-9.2,0.5-8.7,6.6c0.4,5.9,6.7,6.6,11.4,6.8
				c-0.7-1.3-1.4-2.5-2.2-3.8c-0.2,0.4-1.8,1-2.1,1.3c-1.5,0.9-1.5,2.7-0.5,3.9c3.7,4.4,9.3,3.5,14.1,5.7c0.2-1.5,0.4-3,0.6-4.6
				c-9.6,1.3-19.5,2-29,3.8c-1.9,0.4-3.6,0.9-4.4,2.8c-0.9,2.3,1.5,5.9-1.3,7c-0.9,0.4-1.5,1.9-1.1,2.8c0.4,1.1,0.8,1.6,1.5,2.5
				c0.7,0.9,1.1,1.4,1.8,2.4c1.4,2.1,2.9,3.3,5.5,3.8c8.1,1.3,17.8-3.6,23.5,4.7c0.5-1.2,1-2.4,1.5-3.7c-7.4,1.8-14.5,2.5-20.3,7.8
				c-6.6,6-13.5,11.9-19.5,18.5c-0.9,1-1,2.6,0,3.5c0.9,0.8,2.4,0.9,3.1,1.5c0.2,0.2,0.6,1.7,1.2,2.5c1.7,2.1,4.1,2.1,6.6,2
				c10.6-0.7,21.3-0.2,31.9-0.2c-0.6-1.4-1.2-2.8-1.8-4.3c-4.7,4-12,3.1-17.1,7.2c-2.6,2.1-4.7,5-7,7.4c-1.4,1.5-2.8,3-2.7,5.2
				c0.2,4.3,5.6,6.5,9.3,5.2c1,0.2,1.5-0.2,1.6-1c0.7-1.2,0.2-1.3-1.5-0.4c-1.7,0.1-3.8,0.8-5.6,1.1c-4.5,0.7-9,1.1-13.5,1.1
				c-16,0-31.7-3.5-47.5-5.1c-7.8-0.8-15.6-1.1-23.5-0.4c-4.9,0.4-10.5,0.1-11.9,5.8c-0.8,3.1,4,4.5,4.8,1.3c1-3.9,18.5-2.6,22-2.4
				c8.1,0.4,16,1.5,24,2.7c14.4,2,28.9,4.3,43.4,2.4c3.9-0.5,11.9-0.5,14.4-4c2.1-3-0.5-6.1-3.6-6.4c-1-0.1-2.2,0.4-3.1,0.3
				c-0.6,0.1-1.2,0.2-1.8,0.3c-1.6-1.3-1.6-2.5,0.1-3.4c1.3-2.6,5.2-5.9,7.8-7.2c5.1-2.7,10.5-2.2,15.1-6.1c1.7-1.4,0.3-4.3-1.8-4.3
				c-9.6,0-19.2-0.2-28.7,0c-1.2,0-2.5,0.3-3.6,0.2c-2.4-0.2-1.6,0.1-2.7-1.9c-0.4-0.8-0.7-1.6-1.5-2.1c-0.7-0.4-2.3-0.1-2.8-0.6
				c0,1.2,0,2.4,0,3.5c5.3-5.8,11.2-10.9,17-16.1c3.2-2.9,5.8-5.3,10.1-6.5c3.5-1.1,7.1-1.5,10.6-2.4c1.5-0.4,2.4-2.4,1.5-3.7
				c-4-5.7-9.3-7.4-16.1-7.5c-3.2,0-7.6,1.2-10.8,0.4c-2.4-0.5-1.8-2.1-3.1-3.6c-0.3-0.4-1.8-1.1-1.9-1.5c-0.4,0.9-0.8,1.9-1.1,2.8
				c2.1-0.9,4-2.1,4.3-4.6c0.2-1.5-0.6-2.8-0.7-4.2c-0.1-1.1,0.1-0.7-0.4-0.3c0.6-0.5,2.1-0.3,2.9-0.4c9.1-1.1,18.2-2.4,27.4-3.6
				c2.1-0.3,2.5-3.7,0.6-4.6c-4-1.8-10.2-1.5-13.1-4.9c-0.2,1.3-0.3,2.6-0.5,3.9c1.8-1.1,2.9-1.1,3.9-3.1c0.9-1.7-0.2-3.7-2.2-3.8
				c-1.1,0-3,0.1-4-0.3c-1.1,0.1-1.7-0.3-1.7-1.3c-0.5-0.9-0.2-1.2,0.9-1c1.5-0.7,3.1-0.5,4.6-1.4c1.2-0.8,1.8-2.9,0.5-3.9
				c-2.2-1.8-4.2-2.4-7-2.5c-2.1-0.1-4.3,0-6.4,0c-1.9,0-7,0.9-8.5-0.6c-0.8-0.9-1.1-5.9-0.5-6.9c1.3-2.4,9-1.5,11.4-1.9
				c3.5-0.5,12.5-1.4,13.5-5.9c0.2-1.1-0.3-1.8-0.5-2.8c-1,1-1,1.4,0,1.1c0.3,0,0.6-0.1,0.9-0.1c3.9,0.4,9.2-0.5,12.8-2
				c1.7-0.7,2.8-3.6,0.6-4.6c-3.2-1.5-5.4-1.7-8.8-1.8c-5.1-0.1-6.9-7.6-7.9-11.7c-0.6-2.4-0.9-4.8-1.2-7.3c0-0.4-0.6-3.5-0.3-3.8
				c0.5-0.5,2.7-0.1,3.5-0.2c2.9,0,5.8,0,8.7-0.1c4-0.1,12.9-1.7,9.3-7.9c-1.3-2.3-5.1-4.2-7.6-4.8c-1.9-0.5-3.7-0.1-5.6,0.1
				c-2.7,0.2-5.5-0.2-8.2,0c-1.3,0.1,0.3,1.2,0.1,0.5c-0.2-0.4,0.1-1.1,0-1.6c-0.2-0.9-0.4-1.6-1-2.2c-1.5-1.5-3.1-0.8-4.8-0.4
				c-1.1,0.3-1.5,0.8-2.8,0.7c-3.5-0.3,1.1-3.4,2.5-4.3c1.7-1,4.5-2.2,4.7-4.6c0.1-0.9-1.7-3.1-1.9-1.9c0-0.2,3.9-0.9,4.1-1
				c2.9-0.7,7-0.5,9.3-2.8c3.7-3.9,0.7-9.8-4-10.8c-1.7-0.3-2.5,0.1-3.5-1.1c-0.6-0.7-0.3-2.1-1.3-3c-2.2-2.1-9.4,0.4-10.1-0.7
				c1.2,1.8,3.5-2.1,4.5-2.9c2-1.8,3.9-2.7,6.5-3.1c2.9-0.4,5.3-0.4,5.9-3.9c0.2-1.3-0.3-2.7-1.7-3.1c-3.4-0.9-6.8-1.3-10.4-1.2
				c-1.3,0-4.8,1-5.3-0.9c-0.2-0.7,1.2-2.9,1.3-3.9c0.1-1.6-0.3-3-1.5-4.1c-1-0.9-4.3-2.5-5.5-1.8c-0.2,0.1-1.1,1.8-0.8,2.3
				c0.1,0.1,3.9,0,2.8,0c1.9,0,3.7,0,5.6,0c3.7,0,7.3-0.3,10.8-1.7c5-2,9.1-4.3,7.5-9.9c-0.8-2.8-0.7-5.5-1.1-8.4
				c-0.3-1.9-0.9-3.2-2.8-3.9c-2.7-1-6.5-0.2-9.4-0.5c-4.3-0.5-8.5-0.8-12.8-1.1c-2-0.1-3.4-0.5-4.9-1.7c-0.2-0.1-1.8-2.1-2.2-1.7
				c0.2-0.2,3.7,0.5,4,0.5c2.8,0.4,5.7,0.8,8.5,1.2c3.3,0.5,10.8,3,12.3-1.9c0.3-1-0.2-1.9-0.1-2.8c0.4-2.3,2.3-2.8,4.3-3.7
				c2.4-1.1,5.8-2.1,6.9-4.8c0.8-2,0.2-3.9-1.7-4.8c-1.2-0.6-2.9-0.5-4.2-0.9c-2.9-0.8-5.5-2.1-8.1-3.5c0,1.4,0,2.9,0,4.3
				c2.6-1.2,4.9-0.3,7.3,0.3c2.1,0.6,3.9-1.8,2.8-3.7c-2.1-3.7-5-5.1-9-6.2c-1.9-0.5-4.7-0.3-6.3-1.2c-2-1.1-2.1-3.7-4.3-4.6
				c-0.8-0.3-2.3,0.1-2.9-0.2c-1.5-0.7-0.6,0.3-1.2-1.3c-1.3-3.6,1.1-4.5,2.5-7.1c1.9-3.5-0.9-6-4.3-6.4c-6.6-0.8-13.5-0.2-20.1-0.8
				c-7.8-0.7-15.5-1.4-23.3-2.1c-14.9-1.2-29.8-2.1-44.7-2.8c-14.7-0.7-29.4-0.4-44-2c-15-1.7-30.1-2.5-45.2-2.7
				c-7.2-0.1-14.4-0.1-21.7,0C77.3,6.4,69.5,7.4,62,6.7c-6.5-0.6-12.9-1.7-19.4-2c-3.7-0.2-7.3-0.4-11-0.7c-2.3-0.2-4.3-0.5-6.3,0.9
				c-2.5,1.7-5,6.2-2.7,8.9c3.1,3.6,9.9,3.7,14.1,3.8c3.7,0.1,9.9-0.6,10.4,4.2c0.3,3.7-2.4,4.4-5.5,4.4c-6.7,0.1-12-1-18.4,1.8
				c-1.7,0.7-1.6,3.6,0,4.3c0.9,0.4,1.7,0.7,2.6,0.9c0.9,0.2,6.9-0.1,2.5,2.4c-1,0.6-3.3-0.1-4.6,0.3c-0.9,0.3-1.7,1-2.4,1.7
				c-1.5,1.3-0.6,3.6,1.1,4.2c1.2,0.4,2.4,0.8,3.5,1.1c-0.4-1.4-0.7-2.8-1.1-4.2c-3.3,3.2-8.3,2.7-12.4,3.9
				c-1.7,0.5-2.5,2.9-1.1,4.2c2.7,2.5,5.3,2,8.8,2.2c5.3,0.3,10.5,1.6,15.8,2.2c1.3,0.2,5.7-0.3,6.6,0.6c0.6,0.6-0.4,2.6-0.2,3.9
				c0.6,2.9,3.3,4.2,5.8,5.2c-0.2-1.5-0.4-3-0.6-4.6c-1.4,0.8-3.3,1.5-4.3,2.6c-1.1,1.2-1.1,2.7-3.1,3.3c-3.2,1-8.1-0.1-11.4-0.1
				c-6.5,0.1-11.8,1.7-15.7,7.1c-1,1.4,0.1,3.3,1.5,3.7c4.9,1.5,9.8,1.9,14.5,4c3.8,1.6,7.1,3.3,10.6,5.5c0.7,0.4,1.8,0.5,2.5,0
				c1.3-1,4.1-3.4,5.7-1.5c-0.1-1-0.3-2-0.4-3c0,0-3,0.4-3.5,2.3c-0.2,0.9,0,1.9,0.5,2.6c0.3,0.4,0.6,0.8,0.9,1.1
				c0.6,0.5,0.7,0.5,0.1,0.1c0.2,2.4-0.9,3.2,0.9,5.5c1.8,2.2,4.7,3.8,6.2,6.3c0.5-1.2,1-2.4,1.5-3.7c-2.4,0.7-3.2,1.1-4.7,2.8
				c-2.1,2.4-2.3,2.3-5.2,2.3c-1.6,0-3.2,0-4.8,0c-9,0.1-18,0-27,0c-1.4,0-2.4,1.1-2.5,2.5c0,0.5-0.1,1.1-0.1,1.6
				c-0.1,1.5,1.2,2.3,2.5,2.5c7.4,0.9,13.3,4.4,20.9,2.2c-0.6-1.5-1.3-3-1.9-4.6c-3.1,2.3-5.1,5.4-1.9,8.6c1.1,1,7.5,4.3,7.6,5.6
				c0.1,2.4-7.6,0.6-8.9,0.8c-3.6,0.5-4.7,4.4-1.9,6.8c4.9,4.2,11.9,3.3,17.7,3.2c7.6-0.2,15.1,0.2,22.7-0.8
				c7.5-1,14.9-2.3,22.4-3.6c7.9-1.3,15.8-2.4,23.7-2.6c3.6-0.1,7.1,0.1,10.7,0.2c4,0.1,7.7-0.5,10.5,3.2c0.7-1.3,1.4-2.5,2.2-3.8
				c-6-0.6-12-1.5-18.1-1.3c-6,0.2-12,1.1-17.9,1.9c-13.3,1.8-26.6,4.6-40.1,5.8c-6.5,0.6-13.2,0.6-19.6-0.7
				c-3-0.6-8.6-3.7-11.5-1.2c-0.9,0.8-1.2,1.8-1.1,2.9c0,0.9,0.5,1.5,0.6,2.4c0.2,1.2,0.9,1,0,1.7c-1.5,1.2-7.6-0.7-9.1-1.1
				c-3.2-0.7-6.3-1.5-9.6-1.9c-1.9-0.3-3.5,1-3.1,3.1c0.5,2.5,2.1,4.5,4.6,5.3c1.2,0.8,1.2,0.6,0.1-0.5c-0.5,0.3-0.9,0.7-1.3,1.1
				c-0.6,0.6-1,1.5-1.1,2.4c-0.2,5.5,7.6,3.1,9.7,5.9c0.3-1.1,0.6-2.3,0.9-3.4c-2.2,1.2-4.4,1.2-6.8,1.4c-2.1,0.3-3.3,2.5-1.8,4.3
				c3.9,4.3,9.5,6,14.3,9.1c0.2-1.5,0.4-3,0.6-4.6c-3.9,1.2-18.3,2.9-16.1,9.8c1,3.1,5.5,5.4,8,7c4.4,2.7,9,3.7,14,4.5
				c2.3,0.4,5.3,1.3,7.7,1.2c0.7,0,2.4,0.8,1.3-0.5c-0.8-1-0.4-0.5-1.6-0.2c-2.9,0.8-5.6,4.4-7.3,6.7c-1.5,2-3.2,5.3-1.7,7.8
				c1.5,2.6,4.8,1.2,6.5,3.1c0.6-1.4,1.2-2.8,1.8-4.3c-6.9,0-14.5-0.5-20.6,3.6c-2.9,1.9-4.2,6.3-0.5,8.3c2,1.1,4.7,0.5,6.8,0.4
				c2.3-0.1,4.5-0.3,6.8-0.4c0.8,0,1.7-0.1,2.5-0.2c0.8,0.1,0.8-0.2,0-0.8c-1.9,4-5.3,3.5-9.1,3.8c-3.6,0.3-7,0.8-10.5,1.8
				c-2.9,0.8-2,4.6,0.7,4.9c6.6,0.7,13.2-1.2,19.7-0.4c2.7,0.3,4.7,1.2,5.5,4c0.3,1.1,0.5,3,0.2,4.1c-0.6,1.9-1.5,1.5-3.1,1.7
				c-1.9,0.3-3,1.1-4.2,2.6c-1,1.3-0.6,2.1-2.4,2.8c-1.6,0.6-3.6,0.7-5.3,1.1c-4.9,1.2-9,2.6-10,8.1c-0.4,2.3,1.6,3.7,3.7,2.8
				c2.7-1.2,4.8-1.5,7.5,0.1c0.2-1.5,0.4-3,0.6-4.6c-2.6,0.6-5,1.7-7.4,2.8c-2.4,1-6.5,0.9-8.4,2.6c-4.2,3.7,1.8,7.1,4.6,8.5
				c2.4,1.2,6.8,2.3,6.8,5.2c0,1.7-1,2.9,0.5,4.4c3,3.2,11.3,0.4,14.9-0.1c1-0.1,11.5-2,11.5-2c0-0.2-5.1,3.7-5.4,3.9
				c-3.1,1.8-8.3,1.2-11.9,1.7c-3.1,0.4-6.2,1-9.4,1.1c-3,0.1-6.7,0.1-7.7,3.6c-0.4,1.5,0.3,3.2,0,4.2c-0.5,2.2-2,3.9-2.2,6.3
				c-0.4,4.7,3,7.5,7,9.3c7.7,3.5,15.9,0.7,23.7,2.9c-0.4-1.4-0.7-2.8-1.1-4.2c-1.6,1.8-4.8,1.5-6.7,3.1c-1.3,1-2.1,2.4-2.3,4
				c-0.1,1.1,0,2.2,0.3,3.2c0.1,0.4,0.4,0.8,0.4,1.2c0.3,1.6,1.1,0.9-0.1,1.7c-1,0.7-5.4,0.2-6.6,0.3c-2.1,0.2-4.2,0.4-6.3,0.7
				c-3,0.4-6.7,2.8-4.1,6.2c1.1,1.4,2.8,1.5,4.4,1.7c4.3,0.6,6.3,1.9,9.3,5c2,2,3.8,2.2,0.1,1.9c-1.9-0.2-4.6-0.7-6.5,0.2
				c-1.7,0.8-1.8,1.8-2.3,3.4c-0.6,1.9,0.5,1.3-1.6,1.9c-1.4,0.4-2.7,0.2-4.1,0.9c-3.6,1.7-4.9,5.9-3.5,9.5c2.3,5.7,8.8,3.1,13.4,5
				c1.2,0.5,0.4-0.8,0.3,1.2c0,0.7-0.1,1.4,0.1,2.2c0.5,1.7,1.9,2.8,3.3,3.7c2.7,1.5,4.3,2.1,5.1,5.4c0.5,1.9,0.7,3.3,2.3,4.6
				c1.6,1.2,3.6,1.4,5.5,1.5c4.5,0.2,9.1,0,13.6,0c8.6,0,17.3,0,25.9,0c35.2,0,70.5,0,105.7,0c19.6,0,39.2,0,58.9,0
				c19.9,0,39.9,0.7,59.7-0.4c1.4-0.1,2.4-1.1,2.5-2.5c0-0.2,0-0.5,0-0.7c0.1-1.1-0.8-2.2-1.8-2.4c-2.9-0.7-5.9-1.4-8.8-2.1
				c0.2,1.5,0.4,3,0.6,4.6c3-1.7,19.4-9.3,10.3-14c-0.2-0.1-0.4-0.2-0.6-0.3c-1.5-0.9-1.9-0.5-1.3,1.2c0.7,0.2,3.2-0.8,3.7-1
				c1.4-0.6,2.6-1.5,3.3-2.9c0.6-1.5,0.6-3.3-0.6-4.6c-1-1.1-3.5-1-4.1-1.9c-0.5,1.2-1,2.4-1.5,3.7c3.1-1.2,9-2.4,9.4-6.4
				c0.3-3.1-2.3-4.8-5-4.4c-2.1,0.3-4.3,1.7-6.4,2.3c-3.5,1-7.1,1.6-10.8,2c-6.6,0.6-13.2,0.3-19.7,0c0,1.7,0,3.3,0,5
				c7.6-0.5,21,2.6,21.4-8.6c0.2-3.8-3.3-5.3-6.7-4.5c-2.6,0.7-5,2.2-7.5,3c-3.4,1.1-6.9,0.4-10.4,0.3c-7-0.3-13.9-0.4-20.8-1.5
				c-6.2-1-12.4-2-18.6-2.8c-13.3-1.7-26.4-1.4-39.8-1.5C189.7,308.7,189.7,313.7,193,313.8z"/>
		</g>
	</g>
	<ellipse class="st1" cx="154.9" cy="74.4" rx="20.8" ry="18.9"/>
</g>
<circle class="st0" cx="157.6" cy="167.6" r="9.8"/>
<rect x="150.4" y="85.3" class="st1" width="9.5" height="233.8"/>
<polygon class="st1" points="170.6,307.2 155.6,337.2 139.6,307.7 "/>
<polygon class="st2" points="229.2,205.6 264.6,187.1 258.4,226.5 "/>
<polygon class="st1" points="51,222.2 48.5,182.2 81.9,204.4 "/>
<path class="st1" d="M251.2,206.4c0,24.8-41.7,90-95.8,90S59,231.1,59,206.4s42,68.6,96.1,68.6S251.2,181.6,251.2,206.4z"/>
<path class="st3" d="M146.9,357.1"/>
<path class="st4" d="M150,354.1"/>
<circle class="st0" cx="154.9" cy="74.4" r="10.9"/>
</svg>
